<?xml version="1.0" encoding="utf-8"?>
<!-- Generator: Adobe Illustrator 24.3.0, SVG Export Plug-In . SVG Version: 6.00 Build 0)  -->
<svg version="1.1" id="Ebene_1" xmlns="http://www.w3.org/2000/svg" xmlns:xlink="http://www.w3.org/1999/xlink" x="0px" y="0px"
     viewBox="0 0 32 32" style="enable-background:new 0 0 32 32;" xml:space="preserve">
<g>
	<path d="M31.4,14.2c-1.4-1.7-2.9-3.3-4.6-4.8l-5,5c0.9,3.2-1,6.5-4.2,7.3c-1,0.3-2.1,0.3-3.1,0l-4,4c1.8,0.8,3.7,1.2,5.6,1.2
		c7.5,0,13.2-6.4,15.4-9.2C32.2,16.7,32.2,15.3,31.4,14.2z"/>
  <path d="M30.7,1.3c-0.4-0.4-1-0.4-1.4,0l-5.8,5.8C21.2,5.8,18.6,5,16,5C8.4,5,2.7,11.4,0.6,14.2c-0.8,1.1-0.8,2.5,0,3.6
		c1.8,2.3,3.8,4.3,6.2,6l-5.5,5.5c-0.4,0.4-0.4,1,0,1.4s1,0.4,1.4,0c0,0,0,0,0,0l28-28C31.1,2.3,31.1,1.7,30.7,1.3z M10,16
		c0-3.3,2.6-6,5.9-6c1.3,0,2.5,0.4,3.5,1.1l-8.3,8.3C10.4,18.5,10,17.2,10,16z"/>
</g>
</svg>
